<svg xmlns="http://www.w3.org/2000/svg" xmlns:xlink="http://www.w3.org/1999/xlink" width="500" zoomAndPan="magnify" viewBox="0 0 375 374.999991" height="500" preserveAspectRatio="xMidYMid meet" version="1.0"><defs><g/><clipPath id="6c0d1ccca8"><path d="M 38.738281 49.609375 L 336.488281 49.609375 L 336.488281 221 L 38.738281 221 Z M 38.738281 49.609375 " clip-rule="nonzero"/></clipPath></defs><g clip-path="url(#6c0d1ccca8)"><path fill="#009ee2" d="M 281.476562 70.089844 C 265.480469 70.089844 251.074219 76.910156 241.019531 87.796875 C 232.554688 82.058594 222.34375 78.703125 211.347656 78.703125 C 202.265625 78.703125 193.714844 80.992188 186.246094 85.023438 C 174.996094 63.964844 152.777344 49.628906 127.203125 49.628906 C 91.546875 49.628906 62.414062 77.484375 60.433594 112.578125 C 47.222656 123.035156 38.738281 139.183594 38.738281 157.3125 C 38.738281 188.832031 64.335938 214.390625 95.917969 214.390625 C 109.589844 214.390625 122.144531 209.59375 131.980469 201.601562 C 142.828125 213.429688 158.421875 220.851562 175.757812 220.851562 C 193.347656 220.851562 209.144531 213.203125 220.011719 201.0625 C 224.167969 202.019531 228.488281 202.550781 232.9375 202.550781 C 251.582031 202.550781 268.132812 193.640625 278.574219 179.855469 C 279.539062 179.910156 280.511719 179.933594 281.492188 179.933594 C 311.878906 179.933594 336.511719 155.34375 336.511719 125.011719 C 336.511719 94.679688 311.863281 70.089844 281.476562 70.089844 Z M 281.476562 170.378906 C 280.691406 170.378906 279.90625 170.359375 279.128906 170.320312 L 273.410156 170.023438 L 269.957031 174.582031 C 261.089844 186.289062 247.597656 192.996094 232.929688 192.996094 C 229.433594 192.996094 225.902344 192.59375 222.433594 191.796875 L 216.214844 190.363281 L 211.960938 195.117188 C 202.75 205.40625 189.550781 211.308594 175.75 211.308594 C 162.167969 211.308594 149.113281 205.570312 139.933594 195.558594 L 133.066406 188.066406 L 125.171875 194.476562 C 116.8125 201.257812 106.699219 204.839844 95.917969 204.839844 C 70.335938 204.839844 49.527344 184.066406 49.527344 158.539062 C 49.527344 144.324219 55.941406 131.101562 67.128906 122.242188 L 70.929688 119.234375 L 71.199219 114.40625 C 72.871094 84.804688 97.464844 61.621094 127.195312 61.621094 C 147.964844 61.621094 166.9375 73 176.722656 91.3125 L 181.828125 100.863281 L 191.375 95.714844 C 197.464844 92.433594 204.375 90.695312 211.347656 90.695312 C 219.816406 90.695312 227.980469 93.195312 234.957031 97.925781 L 242.648438 103.140625 L 248.949219 96.3125 C 257.308594 87.261719 269.164062 82.074219 281.46875 82.074219 C 305.863281 82.074219 325.703125 101.878906 325.703125 126.226562 C 325.707031 150.574219 305.863281 170.378906 281.476562 170.378906 Z M 175.75 205.332031 C 163.839844 205.332031 152.394531 200.296875 144.34375 191.519531 L 133.664062 179.871094 L 121.394531 189.839844 C 114.113281 195.75 105.308594 198.871094 95.917969 198.871094 C 73.632812 198.871094 55.507812 180.773438 55.507812 158.539062 C 55.507812 146.160156 61.097656 134.636719 70.847656 126.921875 L 76.742188 122.25 L 77.171875 114.742188 C 78.664062 88.296875 100.636719 67.589844 127.195312 67.589844 C 145.742188 67.589844 162.707031 77.753906 171.453125 94.125 L 179.390625 108.976562 L 194.222656 100.96875 C 199.441406 98.15625 205.367188 96.664062 211.347656 96.664062 C 218.613281 96.664062 225.613281 98.804688 231.59375 102.863281 L 243.546875 110.96875 L 253.347656 100.363281 C 260.574219 92.535156 270.824219 88.050781 281.46875 88.050781 C 302.558594 88.050781 319.722656 105.175781 319.722656 126.234375 C 319.722656 147.285156 302.566406 164.417969 281.46875 164.417969 C 280.804688 164.417969 280.125 164.402344 279.441406 164.367188 L 270.546875 163.902344 L 265.179688 170.992188 C 257.457031 181.191406 245.699219 187.035156 232.921875 187.035156 C 229.878906 187.035156 226.800781 186.683594 223.773438 185.984375 L 214.105469 183.753906 L 207.5 191.140625 C 199.417969 200.160156 187.84375 205.332031 175.75 205.332031 Z M 175.75 205.332031 " fill-opacity="1" fill-rule="nonzero"/></g><g fill="#009ee2" fill-opacity="1"><g transform="translate(76.740583, 290.774056)"><g><path d="M 15.765625 0.703125 C 13.066406 0.703125 10.691406 0.21875 8.640625 -0.75 C 6.585938 -1.726562 4.976562 -3.128906 3.8125 -4.953125 C 2.65625 -6.773438 2.078125 -8.945312 2.078125 -11.46875 L 9.796875 -11.46875 C 9.796875 -9.75 10.394531 -8.476562 11.59375 -7.65625 C 12.789062 -6.832031 14.164062 -6.421875 15.71875 -6.421875 C 16.695312 -6.421875 17.613281 -6.578125 18.46875 -6.890625 C 19.320312 -7.210938 20.023438 -7.6875 20.578125 -8.3125 C 21.140625 -8.9375 21.421875 -9.6875 21.421875 -10.5625 C 21.421875 -11.46875 21.097656 -12.179688 20.453125 -12.703125 C 19.816406 -13.222656 18.957031 -13.648438 17.875 -13.984375 C 16.800781 -14.328125 15.625 -14.648438 14.34375 -14.953125 C 13.03125 -15.253906 11.679688 -15.625 10.296875 -16.0625 C 8.921875 -16.5 7.644531 -17.082031 6.46875 -17.8125 C 5.289062 -18.539062 4.347656 -19.519531 3.640625 -20.75 C 2.929688 -21.976562 2.578125 -23.535156 2.578125 -25.421875 C 2.578125 -28.816406 3.726562 -31.429688 6.03125 -33.265625 C 8.34375 -35.109375 11.46875 -36.03125 15.40625 -36.03125 C 19.445312 -36.03125 22.578125 -35.007812 24.796875 -32.96875 C 27.023438 -30.9375 28.140625 -28.164062 28.140625 -24.65625 L 20.5625 -24.65625 C 20.5625 -26.175781 20.019531 -27.296875 18.9375 -28.015625 C 17.863281 -28.742188 16.617188 -29.109375 15.203125 -29.109375 C 13.960938 -29.109375 12.816406 -28.835938 11.765625 -28.296875 C 10.722656 -27.753906 10.203125 -26.910156 10.203125 -25.765625 C 10.203125 -24.921875 10.515625 -24.253906 11.140625 -23.765625 C 11.765625 -23.285156 12.585938 -22.882812 13.609375 -22.5625 C 14.640625 -22.238281 15.78125 -21.925781 17.03125 -21.625 C 18.375 -21.289062 19.753906 -20.894531 21.171875 -20.4375 C 22.585938 -19.976562 23.898438 -19.363281 25.109375 -18.59375 C 26.328125 -17.820312 27.3125 -16.796875 28.0625 -15.515625 C 28.820312 -14.234375 29.203125 -12.613281 29.203125 -10.65625 C 29.203125 -8.101562 28.585938 -5.984375 27.359375 -4.296875 C 26.128906 -2.609375 24.503906 -1.351562 22.484375 -0.53125 C 20.460938 0.289062 18.222656 0.703125 15.765625 0.703125 Z M 15.765625 0.703125 "/></g></g></g><g fill="#009ee2" fill-opacity="1"><g transform="translate(107.011966, 290.774056)"><g><path d="M 28.59375 0 L 19.65625 0 L 10.921875 -13.03125 L 10.921875 0 L 3.53125 0 L 3.53125 -37.140625 L 10.921875 -37.140625 L 10.921875 -15.15625 L 19.09375 -27.28125 L 27.59375 -27.28125 L 18.390625 -14.296875 Z M 28.59375 0 "/></g></g></g><g fill="#009ee2" fill-opacity="1"><g transform="translate(134.352219, 290.774056)"><g><path d="M 22.390625 -27.28125 L 30.265625 -27.28125 L 18.34375 -0.359375 C 17.257812 2.097656 16.160156 4.078125 15.046875 5.578125 C 13.941406 7.078125 12.679688 8.164062 11.265625 8.84375 C 9.847656 9.519531 8.113281 9.859375 6.0625 9.859375 L 3.03125 9.859375 L 3.03125 3.1875 L 5.609375 3.1875 C 6.785156 3.1875 7.71875 3.050781 8.40625 2.78125 C 9.101562 2.507812 9.695312 2.007812 10.1875 1.28125 C 10.675781 0.5625 11.207031 -0.488281 11.78125 -1.875 L 11.875 -2.078125 L 0.296875 -27.28125 L 8.34375 -27.28125 L 15.609375 -10.515625 Z M 22.390625 -27.28125 "/></g></g></g><g fill="#009ee2" fill-opacity="1"><g transform="translate(163.764475, 290.774056)"><g><path d="M 26.484375 -35.375 L 34.8125 -35.375 L 21.46875 0 L 14.25 0 L 0.40625 -35.375 L 8.84375 -35.375 L 17.78125 -10.359375 Z M 26.484375 -35.375 "/></g></g></g><g fill="#009ee2" fill-opacity="1"><g transform="translate(198.230379, 290.774056)"><g><path d="M 25.828125 -27.34375 L 31.328125 -27.34375 L 31.328125 -0.046875 L 25.515625 -0.046875 L 24.90625 -2.46875 C 23.726562 -1.457031 22.390625 -0.664062 20.890625 -0.09375 C 19.390625 0.476562 17.78125 0.765625 16.0625 0.765625 C 13.332031 0.765625 10.890625 0.132812 8.734375 -1.125 C 6.585938 -2.394531 4.890625 -4.113281 3.640625 -6.28125 C 2.390625 -8.457031 1.765625 -10.925781 1.765625 -13.6875 C 1.765625 -16.414062 2.390625 -18.867188 3.640625 -21.046875 C 4.890625 -23.222656 6.585938 -24.929688 8.734375 -26.171875 C 10.890625 -27.421875 13.332031 -28.046875 16.0625 -28.046875 C 17.820312 -28.046875 19.457031 -27.75 20.96875 -27.15625 C 22.488281 -26.570312 23.835938 -25.753906 25.015625 -24.703125 Z M 16.671875 -6.21875 C 18.085938 -6.21875 19.359375 -6.535156 20.484375 -7.171875 C 21.617188 -7.816406 22.503906 -8.703125 23.140625 -9.828125 C 23.785156 -10.953125 24.109375 -12.238281 24.109375 -13.6875 C 24.109375 -15.101562 23.785156 -16.375 23.140625 -17.5 C 22.503906 -18.632812 21.617188 -19.53125 20.484375 -20.1875 C 19.359375 -20.84375 18.085938 -21.171875 16.671875 -21.171875 C 15.222656 -21.171875 13.941406 -20.84375 12.828125 -20.1875 C 11.722656 -19.53125 10.847656 -18.632812 10.203125 -17.5 C 9.566406 -16.375 9.25 -15.101562 9.25 -13.6875 C 9.25 -12.238281 9.566406 -10.957031 10.203125 -9.84375 C 10.847656 -8.738281 11.722656 -7.859375 12.828125 -7.203125 C 13.941406 -6.546875 15.222656 -6.21875 16.671875 -6.21875 Z M 16.671875 -6.21875 "/></g></g></g><g fill="#009ee2" fill-opacity="1"><g transform="translate(232.08985, 290.774056)"><g><path d="M 16.015625 0.765625 C 13.453125 0.765625 11.203125 0.25 9.265625 -0.78125 C 7.328125 -1.8125 5.828125 -3.242188 4.765625 -5.078125 C 3.710938 -6.910156 3.1875 -9.054688 3.1875 -11.515625 L 3.1875 -27.28125 L 10.5625 -27.28125 L 10.5625 -12.375 C 10.5625 -10.425781 11.039062 -8.90625 12 -7.8125 C 12.957031 -6.71875 14.296875 -6.171875 16.015625 -6.171875 C 17.734375 -6.171875 19.0625 -6.722656 20 -7.828125 C 20.945312 -8.941406 21.421875 -10.457031 21.421875 -12.375 L 21.421875 -27.28125 L 28.796875 -27.28125 L 28.796875 -11.515625 C 28.796875 -9.054688 28.265625 -6.910156 27.203125 -5.078125 C 26.148438 -3.242188 24.660156 -1.8125 22.734375 -0.78125 C 20.816406 0.25 18.578125 0.765625 16.015625 0.765625 Z M 16.015625 0.765625 "/></g></g></g><g fill="#009ee2" fill-opacity="1"><g transform="translate(263.068738, 290.774056)"><g><path d="M 3.53125 0 L 3.53125 -37.140625 L 10.921875 -37.140625 L 10.921875 0 Z M 3.53125 0 "/></g></g></g><g fill="#009ee2" fill-opacity="1"><g transform="translate(276.511447, 290.774056)"><g><path d="M 16.875 -6.5625 L 20.21875 -6.5625 L 20.21875 0 L 15 0 C 12.007812 0 9.644531 -0.863281 7.90625 -2.59375 C 6.175781 -4.332031 5.3125 -6.71875 5.3125 -9.75 L 5.3125 -21.375 L 0.359375 -21.375 L 0.359375 -22.9375 L 11.171875 -34.40625 L 12.53125 -34.40625 L 12.53125 -27.28125 L 20.0625 -27.28125 L 20.0625 -21.375 L 12.6875 -21.375 L 12.6875 -10.71875 C 12.6875 -9.394531 13.046875 -8.367188 13.765625 -7.640625 C 14.492188 -6.921875 15.53125 -6.5625 16.875 -6.5625 Z M 16.875 -6.5625 "/></g></g></g><g fill="#009ee2" fill-opacity="1"><g transform="translate(103.125598, 318.737326)"><g><path d="M 11.71875 -12.953125 L 6.921875 -5.171875 L 6.921875 0 L 5.265625 0 L 5.265625 -5.171875 L 0.5 -12.953125 L 2.28125 -12.953125 L 6.09375 -6.703125 L 9.921875 -12.953125 Z M 11.71875 -12.953125 "/></g></g></g><g fill="#009ee2" fill-opacity="1"><g transform="translate(117.533379, 318.737326)"><g><path d="M 7.671875 0.21875 C 6.691406 0.21875 5.785156 0.0507812 4.953125 -0.28125 C 4.128906 -0.625 3.410156 -1.097656 2.796875 -1.703125 C 2.191406 -2.304688 1.722656 -3.007812 1.390625 -3.8125 C 1.054688 -4.625 0.890625 -5.515625 0.890625 -6.484375 C 0.890625 -7.429688 1.054688 -8.3125 1.390625 -9.125 C 1.722656 -9.9375 2.191406 -10.644531 2.796875 -11.25 C 3.410156 -11.863281 4.128906 -12.335938 4.953125 -12.671875 C 5.785156 -13.015625 6.691406 -13.1875 7.671875 -13.1875 C 8.648438 -13.1875 9.550781 -13.015625 10.375 -12.671875 C 11.207031 -12.335938 11.925781 -11.863281 12.53125 -11.25 C 13.132812 -10.644531 13.601562 -9.9375 13.9375 -9.125 C 14.28125 -8.320312 14.453125 -7.441406 14.453125 -6.484375 C 14.453125 -5.515625 14.28125 -4.625 13.9375 -3.8125 C 13.601562 -3 13.132812 -2.289062 12.53125 -1.6875 C 11.925781 -1.09375 11.207031 -0.625 10.375 -0.28125 C 9.550781 0.0507812 8.648438 0.21875 7.671875 0.21875 Z M 7.671875 -1.375 C 8.648438 -1.375 9.523438 -1.59375 10.296875 -2.03125 C 11.078125 -2.476562 11.6875 -3.085938 12.125 -3.859375 C 12.570312 -4.628906 12.796875 -5.503906 12.796875 -6.484375 C 12.796875 -7.453125 12.570312 -8.320312 12.125 -9.09375 C 11.6875 -9.863281 11.078125 -10.472656 10.296875 -10.921875 C 9.523438 -11.367188 8.648438 -11.59375 7.671875 -11.59375 C 6.691406 -11.59375 5.816406 -11.363281 5.046875 -10.90625 C 4.273438 -10.457031 3.664062 -9.847656 3.21875 -9.078125 C 2.78125 -8.304688 2.5625 -7.441406 2.5625 -6.484375 C 2.5625 -5.503906 2.78125 -4.628906 3.21875 -3.859375 C 3.664062 -3.097656 4.273438 -2.492188 5.046875 -2.046875 C 5.816406 -1.597656 6.691406 -1.375 7.671875 -1.375 Z M 7.671875 -1.375 "/></g></g></g><g fill="#009ee2" fill-opacity="1"><g transform="translate(135.107562, 318.737326)"><g><path d="M 6.71875 0.21875 C 5.75 0.21875 4.875 0.00390625 4.09375 -0.421875 C 3.320312 -0.859375 2.710938 -1.453125 2.265625 -2.203125 C 1.828125 -2.960938 1.609375 -3.835938 1.609375 -4.828125 L 1.609375 -12.953125 L 3.265625 -12.953125 L 3.265625 -4.9375 C 3.265625 -4.238281 3.410156 -3.617188 3.703125 -3.078125 C 3.992188 -2.546875 4.398438 -2.128906 4.921875 -1.828125 C 5.441406 -1.523438 6.039062 -1.375 6.71875 -1.375 C 7.382812 -1.375 7.976562 -1.523438 8.5 -1.828125 C 9.019531 -2.128906 9.421875 -2.546875 9.703125 -3.078125 C 9.992188 -3.617188 10.140625 -4.238281 10.140625 -4.9375 L 10.140625 -12.953125 L 11.796875 -12.953125 L 11.796875 -4.828125 C 11.796875 -3.835938 11.570312 -2.960938 11.125 -2.203125 C 10.6875 -1.453125 10.082031 -0.859375 9.3125 -0.421875 C 8.550781 0.00390625 7.6875 0.21875 6.71875 0.21875 Z M 6.71875 0.21875 "/></g></g></g><g fill="#009ee2" fill-opacity="1"><g transform="translate(150.737462, 318.737326)"><g><path d="M 9.3125 0 L 6.34375 -5.078125 L 3.390625 -5.078125 L 3.390625 0 L 1.78125 0 L 1.78125 -12.953125 L 6.6875 -12.953125 C 7.5 -12.953125 8.222656 -12.78125 8.859375 -12.4375 C 9.492188 -12.101562 9.992188 -11.632812 10.359375 -11.03125 C 10.722656 -10.4375 10.90625 -9.757812 10.90625 -9 C 10.90625 -8.082031 10.640625 -7.289062 10.109375 -6.625 C 9.585938 -5.957031 8.898438 -5.503906 8.046875 -5.265625 L 11.140625 0 Z M 3.390625 -11.421875 L 3.390625 -6.609375 L 6.609375 -6.609375 C 7.398438 -6.609375 8.035156 -6.832031 8.515625 -7.28125 C 9.003906 -7.738281 9.25 -8.316406 9.25 -9.015625 C 9.25 -9.703125 9.003906 -10.273438 8.515625 -10.734375 C 8.035156 -11.191406 7.398438 -11.421875 6.609375 -11.421875 Z M 3.390625 -11.421875 "/></g></g></g><g fill="#009ee2" fill-opacity="1"><g transform="translate(164.886012, 318.737326)"><g/></g></g><g fill="#009ee2" fill-opacity="1"><g transform="translate(171.961073, 318.737326)"><g><path d="M 5.625 0.171875 C 4.675781 0.171875 3.84375 0 3.125 -0.34375 C 2.414062 -0.6875 1.859375 -1.164062 1.453125 -1.78125 C 1.054688 -2.40625 0.859375 -3.144531 0.859375 -4 L 2.5 -4 C 2.5 -3.1875 2.796875 -2.550781 3.390625 -2.09375 C 3.984375 -1.644531 4.722656 -1.421875 5.609375 -1.421875 C 6.148438 -1.421875 6.644531 -1.507812 7.09375 -1.6875 C 7.539062 -1.875 7.890625 -2.132812 8.140625 -2.46875 C 8.398438 -2.8125 8.53125 -3.210938 8.53125 -3.671875 C 8.53125 -4.171875 8.378906 -4.5625 8.078125 -4.84375 C 7.773438 -5.125 7.375 -5.34375 6.875 -5.5 C 6.382812 -5.65625 5.863281 -5.796875 5.3125 -5.921875 C 4.8125 -6.046875 4.3125 -6.179688 3.8125 -6.328125 C 3.320312 -6.472656 2.867188 -6.671875 2.453125 -6.921875 C 2.035156 -7.179688 1.703125 -7.515625 1.453125 -7.921875 C 1.210938 -8.335938 1.09375 -8.867188 1.09375 -9.515625 C 1.09375 -10.640625 1.492188 -11.519531 2.296875 -12.15625 C 3.097656 -12.800781 4.164062 -13.125 5.5 -13.125 C 6.84375 -13.125 7.898438 -12.773438 8.671875 -12.078125 C 9.441406 -11.390625 9.828125 -10.460938 9.828125 -9.296875 L 8.21875 -9.296875 C 8.21875 -10.015625 7.957031 -10.570312 7.4375 -10.96875 C 6.925781 -11.375 6.273438 -11.578125 5.484375 -11.578125 C 4.691406 -11.578125 4.03125 -11.398438 3.5 -11.046875 C 2.976562 -10.691406 2.71875 -10.207031 2.71875 -9.59375 C 2.71875 -9.113281 2.863281 -8.738281 3.15625 -8.46875 C 3.457031 -8.207031 3.84375 -8 4.3125 -7.84375 C 4.789062 -7.6875 5.3125 -7.546875 5.875 -7.421875 C 6.375 -7.296875 6.878906 -7.15625 7.390625 -7 C 7.910156 -6.84375 8.378906 -6.632812 8.796875 -6.375 C 9.222656 -6.113281 9.5625 -5.765625 9.8125 -5.328125 C 10.070312 -4.898438 10.203125 -4.351562 10.203125 -3.6875 C 10.203125 -2.875 10 -2.175781 9.59375 -1.59375 C 9.195312 -1.019531 8.648438 -0.582031 7.953125 -0.28125 C 7.265625 0.0195312 6.488281 0.171875 5.625 0.171875 Z M 5.625 0.171875 "/></g></g></g><g fill="#009ee2" fill-opacity="1"><g transform="translate(185.239329, 318.737326)"><g><path d="M 9.90625 -12.953125 L 9.90625 -11.4375 L 5.96875 -11.4375 L 5.96875 0 L 4.328125 0 L 4.328125 -11.4375 L 0.390625 -11.4375 L 0.390625 -12.953125 Z M 9.90625 -12.953125 "/></g></g></g><g fill="#009ee2" fill-opacity="1"><g transform="translate(197.758392, 318.737326)"><g><path d="M 7.671875 0.21875 C 6.691406 0.21875 5.785156 0.0507812 4.953125 -0.28125 C 4.128906 -0.625 3.410156 -1.097656 2.796875 -1.703125 C 2.191406 -2.304688 1.722656 -3.007812 1.390625 -3.8125 C 1.054688 -4.625 0.890625 -5.515625 0.890625 -6.484375 C 0.890625 -7.429688 1.054688 -8.3125 1.390625 -9.125 C 1.722656 -9.9375 2.191406 -10.644531 2.796875 -11.25 C 3.410156 -11.863281 4.128906 -12.335938 4.953125 -12.671875 C 5.785156 -13.015625 6.691406 -13.1875 7.671875 -13.1875 C 8.648438 -13.1875 9.550781 -13.015625 10.375 -12.671875 C 11.207031 -12.335938 11.925781 -11.863281 12.53125 -11.25 C 13.132812 -10.644531 13.601562 -9.9375 13.9375 -9.125 C 14.28125 -8.320312 14.453125 -7.441406 14.453125 -6.484375 C 14.453125 -5.515625 14.28125 -4.625 13.9375 -3.8125 C 13.601562 -3 13.132812 -2.289062 12.53125 -1.6875 C 11.925781 -1.09375 11.207031 -0.625 10.375 -0.28125 C 9.550781 0.0507812 8.648438 0.21875 7.671875 0.21875 Z M 7.671875 -1.375 C 8.648438 -1.375 9.523438 -1.59375 10.296875 -2.03125 C 11.078125 -2.476562 11.6875 -3.085938 12.125 -3.859375 C 12.570312 -4.628906 12.796875 -5.503906 12.796875 -6.484375 C 12.796875 -7.453125 12.570312 -8.320312 12.125 -9.09375 C 11.6875 -9.863281 11.078125 -10.472656 10.296875 -10.921875 C 9.523438 -11.367188 8.648438 -11.59375 7.671875 -11.59375 C 6.691406 -11.59375 5.816406 -11.363281 5.046875 -10.90625 C 4.273438 -10.457031 3.664062 -9.847656 3.21875 -9.078125 C 2.78125 -8.304688 2.5625 -7.441406 2.5625 -6.484375 C 2.5625 -5.503906 2.78125 -4.628906 3.21875 -3.859375 C 3.664062 -3.097656 4.273438 -2.492188 5.046875 -2.046875 C 5.816406 -1.597656 6.691406 -1.375 7.671875 -1.375 Z M 7.671875 -1.375 "/></g></g></g><g fill="#009ee2" fill-opacity="1"><g transform="translate(215.332577, 318.737326)"><g><path d="M 9.3125 0 L 6.34375 -5.078125 L 3.390625 -5.078125 L 3.390625 0 L 1.78125 0 L 1.78125 -12.953125 L 6.6875 -12.953125 C 7.5 -12.953125 8.222656 -12.78125 8.859375 -12.4375 C 9.492188 -12.101562 9.992188 -11.632812 10.359375 -11.03125 C 10.722656 -10.4375 10.90625 -9.757812 10.90625 -9 C 10.90625 -8.082031 10.640625 -7.289062 10.109375 -6.625 C 9.585938 -5.957031 8.898438 -5.503906 8.046875 -5.265625 L 11.140625 0 Z M 3.390625 -11.421875 L 3.390625 -6.609375 L 6.609375 -6.609375 C 7.398438 -6.609375 8.035156 -6.832031 8.515625 -7.28125 C 9.003906 -7.738281 9.25 -8.316406 9.25 -9.015625 C 9.25 -9.703125 9.003906 -10.273438 8.515625 -10.734375 C 8.035156 -11.191406 7.398438 -11.421875 6.609375 -11.421875 Z M 3.390625 -11.421875 "/></g></g></g><g fill="#009ee2" fill-opacity="1"><g transform="translate(229.481127, 318.737326)"><g><path d="M 10.828125 0 L 9.53125 -3.109375 L 3.3125 -3.109375 L 2.03125 0 L 0.3125 0 L 5.609375 -12.953125 L 7.125 -12.953125 L 12.59375 0 Z M 6.40625 -10.71875 L 3.921875 -4.59375 L 8.921875 -4.59375 Z M 6.40625 -10.71875 "/></g></g></g><g fill="#009ee2" fill-opacity="1"><g transform="translate(244.611072, 318.737326)"><g><path d="M 7 -6.421875 L 13.9375 -6.421875 C 13.914062 -5.128906 13.625 -3.984375 13.0625 -2.984375 C 12.507812 -1.984375 11.75 -1.195312 10.78125 -0.625 C 9.8125 -0.0625 8.707031 0.21875 7.46875 0.21875 C 6.507812 0.21875 5.628906 0.0507812 4.828125 -0.28125 C 4.023438 -0.613281 3.332031 -1.082031 2.75 -1.6875 C 2.164062 -2.289062 1.707031 -3 1.375 -3.8125 C 1.050781 -4.625 0.890625 -5.515625 0.890625 -6.484375 C 0.890625 -7.441406 1.050781 -8.328125 1.375 -9.140625 C 1.707031 -9.960938 2.164062 -10.671875 2.75 -11.265625 C 3.332031 -11.867188 4.019531 -12.335938 4.8125 -12.671875 C 5.613281 -13.003906 6.484375 -13.171875 7.421875 -13.171875 C 8.472656 -13.171875 9.4375 -12.960938 10.3125 -12.546875 C 11.195312 -12.140625 11.941406 -11.582031 12.546875 -10.875 C 13.148438 -10.164062 13.546875 -9.351562 13.734375 -8.4375 L 12.078125 -8.4375 C 11.890625 -9.0625 11.566406 -9.609375 11.109375 -10.078125 C 10.660156 -10.546875 10.125 -10.910156 9.5 -11.171875 C 8.882812 -11.441406 8.207031 -11.578125 7.46875 -11.578125 C 6.507812 -11.578125 5.660156 -11.351562 4.921875 -10.90625 C 4.179688 -10.46875 3.601562 -9.867188 3.1875 -9.109375 C 2.769531 -8.347656 2.5625 -7.472656 2.5625 -6.484375 C 2.5625 -5.484375 2.765625 -4.597656 3.171875 -3.828125 C 3.585938 -3.054688 4.160156 -2.453125 4.890625 -2.015625 C 5.628906 -1.585938 6.488281 -1.375 7.46875 -1.375 C 8.269531 -1.375 8.992188 -1.519531 9.640625 -1.8125 C 10.296875 -2.113281 10.84375 -2.523438 11.28125 -3.046875 C 11.71875 -3.566406 12.019531 -4.179688 12.1875 -4.890625 L 7 -4.890625 Z M 7 -6.421875 "/></g></g></g><g fill="#009ee2" fill-opacity="1"><g transform="translate(261.61123, 318.737326)"><g><path d="M 3.390625 -1.5625 L 9.3125 -1.5625 L 9.3125 0 L 1.78125 0 L 1.78125 -12.953125 L 9.109375 -12.953125 L 9.109375 -11.421875 L 3.390625 -11.421875 L 3.390625 -7.40625 L 8.625 -7.40625 L 8.625 -5.90625 L 3.390625 -5.90625 Z M 3.390625 -1.5625 "/></g></g></g></svg>